<svg width="28" height="28" viewBox="0 0 28 28" fill="none" xmlns="http://www.w3.org/2000/svg">
<path fill-rule="evenodd" clip-rule="evenodd" d="M14 2.33331C7.55672 2.33331 2.33337 7.55666 2.33337 14C2.33337 20.4432 7.55672 25.6666 14 25.6666C20.4433 25.6666 25.6667 20.4432 25.6667 14C25.6667 7.55666 20.4433 2.33331 14 2.33331ZM14 4.02234C19.5106 4.02234 23.9777 8.48949 23.9777 14C23.9777 19.5105 19.5106 23.9777 14 23.9777C8.48955 23.9777 4.0224 19.5105 4.0224 14C4.0224 8.48949 8.48955 4.02234 14 4.02234ZM17.5098 9.43202L11.7792 11.2254C11.515 11.3081 11.3081 11.515 11.2255 11.7791L9.43209 17.5098C9.2285 18.1603 9.83975 18.7715 10.4903 18.5679L16.2209 16.7745C16.485 16.6918 16.6919 16.485 16.7746 16.2208L18.568 10.4902C18.7716 9.83969 18.1604 9.22844 17.5098 9.43202ZM16.4738 11.525L15.2939 15.2938L11.525 16.4738L12.7052 12.7051L16.4738 11.525Z" fill="#1E1E1E"/>
</svg>
