<svg width="28" height="28" viewBox="0 0 28 28" fill="none" xmlns="http://www.w3.org/2000/svg">
<path d="M2.875 9.72526C2.875 7.73297 2.88811 6.96688 3.1003 6.37913C3.48323 5.31843 4.31843 4.48323 5.37913 4.1003C5.96688 3.88811 6.73297 3.875 8.72526 3.875C9.34122 3.875 9.5367 3.87853 9.71292 3.91173C10.0429 3.97388 10.3534 4.11332 10.619 4.31862C10.7609 4.42827 10.8934 4.57203 11.3026 5.0324L11.9566 4.45108L11.3026 5.0324L12.8781 6.80478C12.8997 6.82907 12.921 6.85307 12.942 6.87678C13.3099 7.2912 13.5995 7.61744 13.961 7.8534C14.2413 8.03633 14.5485 8.17428 14.8715 8.26224C15.288 8.37569 15.7243 8.3754 16.2784 8.37504C16.3101 8.37502 16.3422 8.375 16.3747 8.375H17.7267C19.1148 8.375 20.1005 8.37575 20.8706 8.44177C21.6297 8.50684 22.0977 8.63043 22.4672 8.82976C23.1182 9.18105 23.6523 9.71512 24.0036 10.3662C24.2029 10.7356 24.3265 11.2037 24.3916 11.9627C24.4576 12.7328 24.4583 13.7186 24.4583 15.1067V16.3933C24.4583 17.7814 24.4576 18.7672 24.3916 19.5373C24.3265 20.2963 24.2029 20.7644 24.0036 21.1338C23.6523 21.7849 23.1182 22.319 22.4672 22.6702C22.0977 22.8696 21.6297 22.9932 20.8706 23.0582C20.1005 23.1243 19.1147 23.125 17.7267 23.125H9.60667C8.21859 23.125 7.2328 23.1243 6.46273 23.0582C5.70367 22.9932 5.2356 22.8696 4.86617 22.6702C4.21512 22.319 3.68105 21.7849 3.32976 21.1338C3.13043 20.7644 3.00684 20.2963 2.94177 19.5373C2.87575 18.7672 2.875 17.7814 2.875 16.3933V9.72526Z" stroke="black" stroke-width="1.75"/>
</svg>
