<svg width="28" height="28" viewBox="0 0 28 28" fill="none" xmlns="http://www.w3.org/2000/svg">
<path fill-rule="evenodd" clip-rule="evenodd" d="M2.27729 6.082C2 6.85007 2 7.80847 2 9.72526V16.3933C2 19.1391 2 20.512 2.5597 21.5493C2.99206 22.3506 3.64938 23.0079 4.45067 23.4403C5.48799 24 6.86088 24 9.60667 24H17.7267C20.4725 24 21.8454 24 22.8827 23.4403C23.684 23.0079 24.3413 22.3506 24.7736 21.5493C25.3333 20.512 25.3333 19.1391 25.3333 16.3933V15.1067C25.3333 12.3609 25.3333 10.988 24.7736 9.95067C24.3413 9.14938 23.684 8.49206 22.8827 8.0597C21.8454 7.5 20.4725 7.5 17.7267 7.5H16.3747C15.7266 7.5 15.4025 7.5 15.1014 7.41799C14.8665 7.35402 14.6431 7.2537 14.4393 7.12065C14.1779 6.95009 13.9626 6.70788 13.5321 6.22347L13.532 6.22346L11.9566 4.45108C11.5693 4.0154 11.3757 3.79756 11.1541 3.62628C10.779 3.33644 10.3407 3.13959 9.8749 3.05185C9.59964 3 9.30818 3 8.72526 3C6.80847 3 5.85007 3 5.082 3.27729C3.77653 3.7486 2.7486 4.77653 2.27729 6.082ZM9 17.25C8.58579 17.25 8.25 17.5858 8.25 18C8.25 18.4142 8.58579 18.75 9 18.75H18.3333C18.7475 18.75 19.0833 18.4142 19.0833 18C19.0833 17.5858 18.7475 17.25 18.3333 17.25H9Z" fill="#1E1E1E"/>
</svg>
