<svg width="28" height="28" viewBox="0 0 28 28" fill="none" xmlns="http://www.w3.org/2000/svg">
<path fill-rule="evenodd" clip-rule="evenodd" d="M6.6958 18.8594C8.83292 20.9365 11.1888 22.7709 13.7211 24.3294L14.0059 24.5L14.2802 24.3294C16.8126 22.7709 19.1684 20.9365 21.3055 18.8594C22.8081 17.3634 23.9519 15.5398 24.6494 13.528C25.9047 9.62538 24.428 5.15765 20.3246 3.83545C18.1679 3.14299 15.8238 4.47126 14.0059 5.83334C12.1886 4.46959 9.82284 3.14118 7.66627 3.83545C3.56288 5.15765 2.09662 9.62538 3.35191 13.528C4.04947 15.5398 5.19331 17.3634 6.6958 18.8594ZM18.9085 6.34903C18.4945 6.33555 18.1479 6.66022 18.1344 7.07422C18.1209 7.48821 18.4456 7.83475 18.8596 7.84824C19.5259 7.86994 20.048 8.12274 20.4155 8.52606C20.7882 8.93514 21.0443 9.5475 21.0734 10.3487C21.0884 10.7626 21.4362 11.086 21.8501 11.071C22.2641 11.056 22.5874 10.7082 22.5724 10.2943C22.5328 9.20207 22.1757 8.23089 21.5243 7.51585C20.8676 6.79503 19.9545 6.38311 18.9085 6.34903Z" fill="#1E1E1E"/>
</svg>
