<svg width="28" height="28" viewBox="0 0 28 28" fill="none" xmlns="http://www.w3.org/2000/svg">
<path d="M11.025 19.3667C11.025 21.203 9.53635 22.6917 7.7 22.6917C5.86365 22.6917 4.375 21.203 4.375 19.3667C4.375 17.5303 5.86365 16.0417 7.7 16.0417C9.53635 16.0417 11.025 17.5303 11.025 19.3667Z" stroke="black" stroke-width="1.75"/>
<path d="M23.6251 19.3667C23.6251 21.203 22.1364 22.6917 20.3001 22.6917C18.4638 22.6917 16.9751 21.203 16.9751 19.3667C16.9751 17.5303 18.4638 16.0417 20.3001 16.0417C22.1364 16.0417 23.6251 17.5303 23.6251 19.3667Z" stroke="black" stroke-width="1.75"/>
<path d="M23.765 19.3667V8.66666C23.765 7.26653 23.765 6.56647 23.4926 6.03169C23.2529 5.56128 22.8704 5.17883 22.4 4.93915C21.8652 4.66666 21.1652 4.66666 19.765 4.66666H15.165C13.7649 4.66666 13.0648 4.66666 12.5301 4.93915C12.0597 5.17883 11.6772 5.56128 11.4375 6.03169C11.165 6.56647 11.165 7.26653 11.165 8.66666V19.3667" stroke="black" stroke-width="1.75"/>
</svg>
