<svg width="24" height="24" viewBox="0 0 24 24" fill="none" xmlns="http://www.w3.org/2000/svg">
<g clip-path="url(#clip0)">
<path d="M394.56 -122.4V281.76H-33.6V-122.4H394.56ZM396.48 -124.32H-35.52V283.68H396.48V-124.32Z" fill="#0000FF"/>
<path d="M17.6 14.944C16.448 14.944 15.416 15.496 14.768 16.336L8.936 12.952C9.296 12.064 9.296 11.08 8.936 10.192L14.768 6.808C15.416 7.648 16.448 8.2 17.6 8.2C19.592 8.2 21.2 6.592 21.2 4.6C21.2 2.608 19.592 1 17.6 1C15.608 1 14 2.608 14 4.6C14 5.08 14.096 5.56 14.264 5.968L8.432 9.376C7.76 8.536 6.752 7.984 5.6 7.984C3.608 7.984 2 9.592 2 11.584C2 13.576 3.608 15.184 5.6 15.184C6.752 15.184 7.784 14.632 8.432 13.792L14.264 17.176C14.096 17.584 14 18.064 14 18.544C14 20.536 15.608 22.144 17.6 22.144C19.592 22.144 21.2 20.536 21.2 18.544C21.2 16.552 19.592 14.944 17.6 14.944ZM17.6 1.984C19.064 1.984 20.24 3.16 20.24 4.624C20.24 6.088 19.064 7.264 17.6 7.264C16.136 7.264 14.96 6.088 14.96 4.624C14.96 3.16 16.136 1.984 17.6 1.984ZM5.6 14.224C4.136 14.224 2.96 13.048 2.96 11.584C2.96 10.12 4.136 8.944 5.6 8.944C7.064 8.944 8.24 10.12 8.24 11.584C8.24 13.048 7.064 14.224 5.6 14.224ZM17.6 21.184C16.136 21.184 14.96 20.008 14.96 18.544C14.96 17.08 16.136 15.904 17.6 15.904C19.064 15.904 20.24 17.08 20.24 18.544C20.24 20.008 19.064 21.184 17.6 21.184Z" fill="black"/>
</g>
<defs>
<clipPath id="clip0">
<rect width="24" height="24" fill="white"/>
</clipPath>
</defs>
</svg>
