<svg width="24" height="24" viewBox="0 0 24 24" fill="none" xmlns="http://www.w3.org/2000/svg">
<g clip-path="url(#clip0)">
<path d="M10.6683 18.6658L11.0347 19.3202L10.6683 18.6658L10.4617 18.7814C9.21439 19.4796 8.35234 19.96 7.70571 20.2081C7.04541 20.4616 6.87781 20.3665 6.81686 20.3222L6.37602 20.9289L6.81686 20.3222C6.75591 20.2779 6.61368 20.1479 6.65064 19.4416C6.68685 18.7499 6.87728 17.7816 7.15586 16.3796L7.20201 16.1473L7.20825 16.1159C7.2829 15.7404 7.34893 15.4081 7.37744 15.1241C7.40835 14.8162 7.40237 14.5092 7.29867 14.19C7.19496 13.8708 7.01937 13.619 6.81335 13.388C6.62334 13.175 6.37465 12.945 6.09351 12.6851L6.06998 12.6633L5.56077 13.214L6.06998 12.6633L5.89613 12.5025C4.84665 11.532 4.12345 10.8606 3.68761 10.3223C3.24255 9.77263 3.28121 9.58385 3.30449 9.5122C3.32777 9.44054 3.40746 9.2651 4.09061 9.082C4.75961 8.90269 5.73935 8.78459 7.15885 8.61628L7.394 8.5884L7.42579 8.58463C7.80605 8.53957 8.14242 8.49971 8.42137 8.43905C8.72379 8.37329 9.01389 8.27274 9.2854 8.07548C9.5569 7.87822 9.74218 7.63339 9.89817 7.36609C10.0421 7.11953 10.1839 6.81193 10.3443 6.4642L10.3577 6.43516L10.4569 6.22013C11.0556 4.92212 11.4707 4.02682 11.8479 3.44597C12.2332 2.85284 12.4247 2.83127 12.5 2.83127C12.5753 2.83127 12.7668 2.85284 13.1521 3.44597C13.5293 4.02682 13.9444 4.92212 14.5431 6.22013L15.2242 5.906L14.5431 6.22013L14.6423 6.43516L14.6557 6.46422C14.8161 6.81195 14.9579 7.11954 15.1018 7.36609C15.2578 7.63339 15.4431 7.87822 15.7146 8.07548C15.9861 8.27274 16.2762 8.37329 16.5786 8.43905C16.8576 8.49971 17.194 8.53957 17.5742 8.58463L17.606 8.5884L17.8412 8.61628C19.2607 8.78459 20.2404 8.90269 20.9094 9.082C21.5925 9.2651 21.6722 9.44054 21.6955 9.5122C21.7188 9.58385 21.7574 9.77263 21.3124 10.3223C20.8766 10.8606 20.1533 11.532 19.1039 12.5025L18.93 12.6633L18.9065 12.6851C18.6254 12.945 18.3767 13.175 18.1866 13.388C17.9806 13.619 17.805 13.8708 17.7013 14.19C17.5976 14.5092 17.5916 14.8162 17.6226 15.1241C17.6511 15.4081 17.7171 15.7404 17.7917 16.1159L17.798 16.1473L17.8441 16.3796C18.1227 17.7816 18.3132 18.7499 18.3494 19.4416C18.3863 20.1479 18.2441 20.2779 18.1831 20.3222C18.1222 20.3665 17.9546 20.4616 17.2943 20.2081C16.6477 19.96 15.7856 19.4796 14.5383 18.7814L14.3317 18.6658L14.3037 18.6501C13.9696 18.4631 13.674 18.2976 13.4127 18.1827C13.1294 18.0582 12.8356 17.969 12.5 17.969C12.1644 17.969 11.8706 18.0582 11.5873 18.1827C11.326 18.2976 11.0304 18.4631 10.6963 18.6501L10.6683 18.6658Z" stroke="#1E1E1E" stroke-width="1.5"/>
</g>
<defs>
<clipPath id="clip0">
<rect width="24" height="24" fill="white"/>
</clipPath>
</defs>
</svg>
