<svg width="28" height="28" viewBox="0 0 28 28" fill="none" xmlns="http://www.w3.org/2000/svg">
<path fill-rule="evenodd" clip-rule="evenodd" d="M13.9997 2.33389C7.55593 2.33389 2.33301 7.5568 2.33301 14.0006C2.33301 20.4443 7.55593 25.6672 13.9997 25.6672C20.4434 25.6672 25.6663 20.4443 25.6663 14.0006C25.6663 7.5568 20.4434 2.33389 13.9997 2.33389ZM13.9997 4.08389C19.4769 4.08389 23.9163 8.5233 23.9163 14.0006C23.9163 19.4778 19.4769 23.9172 13.9997 23.9172C8.52243 23.9172 4.08301 19.4778 4.08301 14.0006C4.08301 8.5233 8.52243 4.08389 13.9997 4.08389ZM14.4719 9.03596C14.414 8.60887 14.0479 8.27969 13.6049 8.27969C13.1216 8.27969 12.7299 8.67144 12.7299 9.15469V14.8095L12.7397 14.9399C12.7783 15.1966 12.9297 15.4257 13.1566 15.561L17.555 18.1848L17.661 18.2387C18.0575 18.4078 18.5277 18.2621 18.7547 17.8816L18.8087 17.7756C18.9777 17.3791 18.8319 16.9088 18.4514 16.6819L14.4794 14.3115L14.4799 9.15469L14.4719 9.03596Z" fill="#200E32"/>
</svg>
