<svg width="24" height="24" viewBox="0 0 24 24" fill="none" xmlns="http://www.w3.org/2000/svg">
<path fill-rule="evenodd" clip-rule="evenodd" d="M9.59149 4.49982C6.74359 4.49982 4.45749 6.78628 4.45749 9.63382C4.45749 12.4822 6.74341 14.7688 9.59149 14.7688C12.4397 14.7688 14.7265 12.482 14.7265 9.63382C14.7265 6.78642 12.4396 4.49982 9.59149 4.49982ZM9.59149 5.99982C11.6112 5.99982 13.2265 7.6149 13.2265 9.63382C13.2265 11.6536 11.6113 13.2688 9.59149 13.2688C7.57195 13.2688 5.95749 11.6538 5.95749 9.63382C5.95749 7.61466 7.57207 5.99982 9.59149 5.99982ZM20.0672 9.61642C20.0672 7.38189 18.2551 5.56942 16.0202 5.56942C15.606 5.56942 15.2702 5.9052 15.2702 6.31942C15.2702 6.73363 15.606 7.06942 16.0202 7.06942C17.4266 7.06942 18.5672 8.21025 18.5672 9.61642C18.5672 11.0232 17.427 12.1634 16.0202 12.1634C15.606 12.1634 15.2702 12.4992 15.2702 12.9134C15.2702 13.3276 15.606 13.6634 16.0202 13.6634C18.2554 13.6634 20.0672 11.8516 20.0672 9.61642ZM19.2996 15.9938C18.745 15.8709 18.1678 15.7876 17.5872 15.7481C17.174 15.72 16.8162 16.0323 16.7881 16.4455C16.7599 16.8588 17.0722 17.2166 17.4854 17.2447C17.991 17.2791 18.4938 17.3516 18.9912 17.4617C19.7678 17.6163 20.2822 17.8733 20.4213 18.1651C20.5261 18.3857 20.5261 18.6442 20.4209 18.8655C20.2828 19.1563 19.7711 19.4127 19.0022 19.5708C18.5965 19.6542 18.3353 20.0508 18.4187 20.4565C18.5022 20.8622 18.8987 21.1235 19.3044 21.04C20.4992 20.7943 21.3733 20.3563 21.7758 19.5093C22.0745 18.8807 22.0745 18.1492 21.7757 17.5205C21.371 16.6713 20.4877 16.2302 19.2996 15.9938ZM2.00049 20.0183C2.00049 17.3938 4.75808 16.4563 9.59149 16.4563L9.91127 16.4577C14.5557 16.4981 17.1835 17.4362 17.1835 19.9983C17.1835 22.5062 14.665 23.4737 10.2237 23.5547L9.59149 23.5603C4.74715 23.5603 2.00049 22.6394 2.00049 20.0183ZM15.6835 19.9983C15.6835 18.6506 13.613 17.9563 9.59149 17.9563C5.57414 17.9563 3.50049 18.6613 3.50049 20.0183C3.50049 21.3668 5.56916 22.0603 9.59149 22.0603C13.6092 22.0603 15.6835 21.3553 15.6835 19.9983Z" fill="#1F1F1F"/>
</svg>
